<?xml version="1.0" standalone="no"?>
<!DOCTYPE svg PUBLIC "-//W3C//DTD SVG 1.1//EN" "http://www.w3.org/Graphics/SVG/1.1/DTD/svg11.dtd" >
<svg xmlns="http://www.w3.org/2000/svg">
<metadata></metadata>
<defs>
<font id="the_skinnyregular" horiz-adv-x="604" >
<font-face units-per-em="2048" ascent="1638" descent="-410" />
<missing-glyph horiz-adv-x="512" />
<glyph horiz-adv-x="0" />
<glyph horiz-adv-x="682" />
<glyph unicode=" "  horiz-adv-x="512" />
<glyph unicode="&#x09;" horiz-adv-x="512" />
<glyph unicode="&#xa0;" horiz-adv-x="512" />
<glyph unicode="A" horiz-adv-x="720" d="M0 -227q8 283 18 420q5 61 19.5 176.5t17.5 138.5q23 218 45 407q9 71 29.5 202t26.5 173q2 20 6 72t8 80q8 72 31 151q2 7 8.5 13.5t19.5 16t19 15.5q5 -10 16 -28t17.5 -31.5t9.5 -26.5q34 -197 55 -346q2 -21 16 -149.5t25 -196.5q11 -72 37.5 -203.5t34.5 -175.5 q23 -129 71 -426q4 -30 37 -291q1 -5 17 -112q0 -28 -2 -31q-8 -8 -45 -31q-1 3 -12.5 18t-12.5 23q-4 34 -8 101.5t-8 101.5q-14 143 -47 369q-1 10 -12.5 22t-22.5 15q-104 27 -194 27q-72 0 -136 -17q-12 -125 -12 -133q-10 -259 -11 -312q-1 -25 -1 -77t-1 -78 q-3 -50 -40 -50q-9 0 -19 3v170zM84 324q46 -2 166.5 -8t187.5 -9q-50 192 -99.5 572t-92.5 559q-15 0 -21 -2q-100 -793 -141 -1112z" />
<glyph unicode="B" horiz-adv-x="567" d="M0 1604q0 8 10 20t17 12q11 1 21 1q56 1 106 -31q60 -38 90 -103q6 -13 35.5 -66.5t37.5 -84.5q18 -64 27 -102q8 -40 18 -96q9 -51 10 -98q0 -6 -1 -10q-1 -52 -11 -102q-16 -83 -60.5 -140t-123.5 -120q4 -3 39 -32.5t55 -39.5q24 -11 41.5 -26t30.5 -39.5t19 -37.5 t16.5 -48t13.5 -43q29 -82 29 -142v-35q0 -99 -14 -190q-19 -113 -79 -210t-157 -199q-26 -28 -107 -50q-8 -2 -15 -2q-14 0 -23 9q-13 14 -11 43q10 286 11 335q0 44 -3 152q-2 81 -2 134v32q0 49 5 141t6 129q1 19 -2.5 54.5t-3.5 50.5q0 46 -3 194q-3 126 -3 179 q1 9 1 15q0 46 3 195q2 16 0.5 59.5t-2 58.5t-4 58t-5 58.5t-6 58.5t-6.5 58zM80 -315q32 7 33 8q13 13 42.5 40.5t46 44t36.5 43.5t32 54q8 19 26.5 54t31.5 64t18 56q15 68 15 138q0 116 -42 239q-32 89 -94 143t-145 58v-942zM80 723q8 -4 14 -6q9 6 28 16t23 12 q167 89 167 287q0 11 -1 23q-2 33 -8.5 69t-17 81t-15.5 69q-28 161 -145 266q-5 5 -12.5 10t-18 10t-14.5 7v-844z" />
<glyph unicode="C" horiz-adv-x="577" d="M0 422v28q0 28 1 60q2 46 6 103t5 89v29v81q0 23 -1 42q0 50 3 68q2 21 5.5 76t6 83.5t7 73t10 82.5t12.5 74q6 33 18 71.5t22 64t28.5 71t26.5 65.5q12 33 56 47q26 8 56 7q20 0 41 -3q63 -11 88 -92q22 -66 29 -172q2 -22 -9 -36t-40 -5q-8 56 -21 127q-8 41 -22 57 q-48 48 -67 48h-3q-20 -3 -41 -21.5t-29 -38.5q-44 -110 -65 -219q-30 -170 -45 -342q-3 -21 -3 -80q1 -22 1 -50q1 -61 0 -95v-35q0 -38 -4 -112.5t-4 -112.5q0 -34 10 -219l24 -318q14 -142 84 -219q28 -28 58 -27q8 0 14 1q36 8 53 42q54 113 76 299q3 23 13 32.5t32 8.5 t31 -14q6 -8 6 -20q0 -6 -2 -13q-7 -25 -24 -103t-33 -129.5t-41 -97.5t-66 -70q-30 -18 -59 -18q-11 0 -21 2q-82 22 -129 117q-15 32 -26.5 69.5t-18 64t-12.5 73.5t-7.5 66t-5 74.5t-4.5 68.5q-1 23 -10 131.5t-10 165.5z" />
<glyph unicode="D" horiz-adv-x="622" d="M-1 -318q1 10 3 28q2 22 2 28q12 262 14 393q7 280 7 483q1 103 1 309.5t1 309.5q1 37 6 110.5t6 110.5q1 17 0 36.5t-3 43t-3 35.5v4q-1 45 19 59q10 7 25 7q17 0 40 -9q220 -81 286 -268q24 -72 37 -116q12 -42 22 -110q5 -39 6 -75q0 -26 -3 -51q0 -12 5 -94 q4 -59 4 -99q0 -16 -1 -29q-7 -132 -33 -356q-25 -215 -55 -354q-6 -29 -30.5 -86.5t-30.5 -87.5q-17 -81 -74 -144q-74 -80 -150 -153q-15 -15 -28 -17h-4q-10 0 -18 6q-10 8 -27 27q-11 14 -17 30q-6 18 -7 29zM78 -311q4 0 7 2.5t5.5 6.5t3.5 5q151 100 221 334 q12 39 22 86.5t15.5 82.5t14.5 91t14 86q15 91 18 186q2 52 3 180.5t4 198.5q2 25 2 50q0 150 -56 325q-53 171 -250 231q-4 -312 -12 -933t-12 -932z" />
<glyph unicode="E" horiz-adv-x="481" d="M0 -308q0 6 2 29q2 46 4 138.5t4 138.5q1 30 4.5 127.5t3.5 150.5q1 37 1 117q-1 40 -1 91v57q0 106 2 151q1 68 7.5 203t7.5 203v78q-1 66 -1 158q-2 152 -1 200q0 8 -2 23t-2 25t4 15q11 14 30 25t37 12q42 2 118.5 2.5t100.5 1.5q24 0 37.5 -6.5t14.5 -27.5 q0 -45 -49 -45h-228v-555q17 2 49.5 4.5t59 5.5t49.5 8q40 8 47 -25q1 -5 1 -9q0 -37 -38 -40q-47 -2 -137 -6q-20 0 -28.5 -8.5t-8.5 -28.5q-1 -66 -4 -195.5t-4 -195.5q-2 -102 -5 -307t-5 -307v-183q0 -20 7 -28t32 -8h7q47 0 138 -23q6 -2 11.5 -9t12 -18.5t9.5 -15.5 q-5 -3 -13 -9.5t-15 -11t-13 -4.5q-8 0 -115 11q-6 1 -17.5 3t-17.5 3q-19 2 -27.5 2.5t-21 3.5t-17 3t-12 6t-9 6.5t-5 10.5t-3.5 13q-1 2 -1 18v13.5v8.5z" />
<glyph unicode="F" horiz-adv-x="477" d="M0 -369q2 31 10 136t10 161v24q0 33 -2 80q-2 67 -2 93q0 40 2 119t2 118q0 33 -2 95t-2 112.5t4 94.5q8 66 8 172v36q0 44 -1 82q0 76 2 127q24 390 24 394q1 14 0 29.5t-3 35t-3 29.5v8q0 37 43 43q12 2 43 8.5t49 7.5q35 2 63 2q42 0 70 -4q11 0 24 -13.5t15 -25.5 q1 -3 1 -6q1 -15 -11 -25q-14 -12 -33 -12q-14 -1 -38.5 1.5t-34.5 2.5h-125q-17 -355 -27 -591q22 -5 58 -11.5t42 -7.5q41 -7 49 -16t5 -23q-4 -32 -37 -32q-12 0 -27 4q-11 4 -23.5 5.5t-31 3.5t-27.5 3q0 -5 -2 -15.5t-2 -15.5q-8 -241 -14 -360q-1 -17 -4.5 -74.5 t-3.5 -87.5q1 -41 6 -122t6 -122v-26q0 -82 -4 -330q0 -84 -4 -109q-3 -11 -15.5 -23.5t-23.5 -13.5q-6 -2 -11 -2q-10 0 -16 8q-6 10 -6 25v8z" />
<glyph unicode="G" d="M0 329v41v45q1 47 2 75t4 86t4 77q7 217 25 379q21 178 59 361q4 21 12.5 47.5t13.5 39.5t19.5 48.5t16.5 40.5q19 49 96 65q23 5 43 5q45 0 70 -27q27 -5 76 -58q40 -42 40 -66q0 -5 -2 -9q-3 -9 -12 -9q-16 -8 -31.5 0.5t-31 24t-23.5 18.5q-7 3 -20 13.5t-17 13.5 q-36 24 -66 24q-13 0 -24 -4q-38 -15 -53 -77q-44 -164 -80 -353q-17 -87 -29 -241q-20 -209 -24 -322q-1 -13 -1 -31q0 -35 3 -88t3 -88q0 -17 -1 -30q-1 -21 -1 -42q0 -55 5 -118q8 -87 15.5 -137t25.5 -156q12 -66 55 -166q8 -16 25.5 -30.5t31.5 -14.5q20 0 37 14.5 t21 38.5q10 46 30.5 129.5t36.5 153t27 131.5q6 37 11 83t7 77.5t5.5 90t5.5 85.5q-101 4 -125 8q-17 3 -37.5 13.5t-20.5 17.5q4 52 49 52q6 0 13 -1q17 -2 70 -5t81 -9q12 -3 26.5 -20t14.5 -29q-13 -191 -35 -353q-20 -147 -71 -395q-11 -52 -45 -104q-33 -53 -95 -53h-7 q-66 3 -113 63q-25 34 -39 90q-6 27 -15 88.5t-18 93.5q-11 37 -18 83.5t-10 75.5t-6.5 88t-4.5 79q-3 38 -4 77z" />
<glyph unicode="H" horiz-adv-x="589" d="M0 -365q0 45 3 135.5t3 135.5q-1 49 -3 182t-2 181.5t1 181.5q2 119 16 347.5t15 254.5v35q-1 30 -1 71q-2 68 -1 90q-2 104 -2 346q0 9 8 20t16 13q7 1 18.5 -5.5t16.5 -14.5q8 -12 8 -47q-5 -260 -8 -322q-8 -309 -14 -469q-1 -35 -4 -102t-4 -99h262v119q0 252 -2 377 q0 101 -4 301q-1 28 -5 103.5t-4 117.5q0 14 1 22.5t9.5 18t24.5 10.5h3q20 0 28 -11q8 -12 8 -34q0 -35 -1 -105.5t-1 -105.5q0 -47 1 -140t1 -140q-1 -32 -5 -158q-3 -101 -3 -164v-30q3 -125 13.5 -353.5t13.5 -308.5q12 -250 20 -375q0 -6 4 -23q3 -10 3 -17q0 -4 -1 -7 q-7 -19 -18.5 -35.5t-22.5 -17.5q-18 -3 -28.5 11t-10.5 38q2 118 2 207t-2 147q-2 60 -6 127.5t-9.5 149.5t-8.5 127v22q6 33 -10.5 46.5t-47.5 11.5q-34 -1 -104 -5.5t-109 -5.5v-112q10 -292 11 -352v-46.5v-66v-66v-47.5q0 -27 4 -79t4 -78q0 -29 -17 -43q-5 -5 -19 -7 q-4 0 -7 -1q-8 0 -13 3q-20 13 -20 41z" />
<glyph unicode="I" horiz-adv-x="264" d="M6 55q0 77 -1 230t-1 229q0 221 2 332q2 52 9 179t8 196v13q0 75 -9 349q0 55 41 55q8 0 14 -2.5t9.5 -5.5t5.5 -9.5t2.5 -10t1 -12t0.5 -11.5q2 -24 6 -71.5t6 -71.5h-2q-8 -159 -20 -483q-2 -78 -2.5 -220.5t-1.5 -187.5q-1 -60 -5.5 -182t-5.5 -183q0 -30 4 -85.5 t5 -75.5q4 -273 4 -365v-29q0 -12 -13 -27.5t-22 -15.5q-20 0 -31 14q-10 12 -10 34z" />
<glyph unicode="J" d="M0 186q0 12 11.5 30t21.5 22q21 7 29 -5t10 -36q10 -182 14 -217q11 -126 37 -271q6 -35 20 -39t43 19q37 32 37 86v10q0 34 5 91q7 65 8 89q3 81 5 172t4 202.5t3 172.5q4 286 4 432q1 86 2 258t2 258q0 2 -1 6.5t-1 6.5q-1 29 -1.5 40t-5.5 25t-7.5 17t-17.5 7t-24.5 4 t-39.5 1q-24 0 -46 10.5t-18 32.5q1 10 7.5 16.5t19.5 8.5t22 2.5t27 0.5h10h180q46 0 70 -12q3 -2 12 -4.5t12 -5t8 -11.5q2 -4 2 -10t-3 -14q-2 -14 -10.5 -21t-15.5 -8t-21.5 0.5t-18.5 1.5q-31 -2 -52 -2t-32 2q1 -23 2 -69t2 -68v-43q0 -10 2 -16q0 -135 2 -209 q0 -21 -4.5 -62.5t-5.5 -58.5q-2 -33 -2 -98q0 -1 -1 -98v-53q0 -43 1 -44q0 -30 3 -93t3 -95q-1 -63 -4 -190t-4 -191q-4 -220 -8 -332q-4 -93 -21 -137q-38 -88 -120 -105q-9 -2 -18 -2q-26 0 -48 16q-28 21 -37 62q-20 105 -28 193q-22 228 -25 325z" />
<glyph unicode="K" horiz-adv-x="657" d="M0 -373q0 48 3 144.5t3 144.5q1 86 1 257.5t1 256.5q0 245 8 438q3 58 12.5 176.5t12.5 178.5q0 1 6 338q0 6 -5.5 18t-4.5 21.5t14 15.5q8 23 31 20q28 -3 34 -87q3 -40 3 -72q0 -34 -4 -56q-4 -90 -17.5 -255t-17.5 -234q-2 -26 -2 -154q12 -4 16 -4q10 20 52.5 108 t64.5 136q82 184 121 278q21 50 61 153t60 153q12 31 23 35q3 1 6 1q7 0 16 -4q22 -10 22 -34q0 -13 -6 -29q-15 -35 -52 -134.5t-61 -152.5q-42 -96 -123 -270.5t-100 -214.5q-31 -64 -43 -99q-4 -11 4 -36q51 -111 88 -195q28 -61 41 -98q19 -50 70 -201q82 -262 121 -393 q7 -24 12 -64.5t2 -60.5q0 -15 -10 -31t-27 -20q-15 -3 -25 10t-14 29q-16 56 -41 180.5t-37 171.5q-6 21 -21.5 66t-21.5 69q-51 199 -126 322q-11 19 -20.5 43t-19.5 54.5t-16 45.5q-8 0 -12 -2q-8 -149 -10 -221q-2 -57 -2 -174q2 -90 5 -270t5 -269q0 -35 -8 -45 q-21 -21 -40 -21h-5q-8 2 -17.5 14.5t-9.5 22.5z" />
<glyph unicode="L" horiz-adv-x="415" d="M0 -352q4 98 4 149q8 473 14 711q1 55 6 190.5t5 208.5q0 39 -11 443q-4 162 -4 216v17q0 49 33 55h4q11 0 17 -9q8 -11 9 -20.5t1 -23.5q4 -189 8 -571l2 -224v-98q0 -127 -2 -127q-1 -64 -7.5 -207.5t-6.5 -220.5q0 -76 4.5 -216.5t5.5 -196.5q6 -41 4 -52q17 0 49.5 3 t57.5 5t49.5 -0.5t36.5 -14.5q9 -9 9 -24q0 -5 -1 -10q-5 -23 -57 -33q-42 -8 -86 -8h-22q-56 2 -89 11q-33 7 -33 47z" />
<glyph unicode="M" horiz-adv-x="761" d="M0 1579q2 16 9.5 32.5t17.5 20.5q16 6 28 6q25 0 33 -26q19 -56 56.5 -159t52.5 -146q26 -80 43 -146q4 -13 26 -108q58 193 142 467q1 5 9.5 33.5t14.5 43.5q5 11 17 23q11 12 17 12h1q41 -14 49 -39q14 -41 14 -92v-31q0 -36 -1 -89.5t-1 -89.5v-31q5 -192 19 -457 q12 -268 22 -402q2 -36 13.5 -156t13.5 -186q4 -83 4 -378q0 -30 2 -35q4 -10 4 -19q0 -11 -6 -19q-10 -16 -29 -18h-5q-17 0 -27 12q-12 14 -11 40q1 16 4.5 50.5t5.5 61t1 51.5q-1 37 -17 390q-1 21 -4 60t-4 60q-3 73 -3 113q0 24 1 37q0 41 0.5 49t-3.5 49t-5 49 q-2 29 -8.5 85t-8.5 83q-8 91 -20 287q-4 93 -8 287q0 19 4 65q-3 0 -9 1t-8 1q-56 -169 -71 -229q-9 -36 -23.5 -108t-23.5 -107q-11 -54 -58 -57q-25 -3 -35.5 11t-15.5 42q-15 83 -43 198q-3 18 -16.5 49.5t-16.5 41.5q-8 28 -23.5 85t-23.5 85q-3 15 -24 24v-184 q4 -212 4 -318v-118v-165.5v-165.5v-118q0 -195 6 -391q2 -51 10 -152.5t10 -152.5q0 -12 -13.5 -28t-25.5 -19q-19 -6 -28.5 5.5t-9.5 33.5q0 86 -3 244.5t-4 195.5q-6 294 -6 297q0 63 2 186.5t2 184.5q-1 82 -5 246.5t-5 246.5v27q0 31 1 76.5t1 76.5v27q0 13 -4 43 q-4 24 -4 39v6z" />
<glyph unicode="N" horiz-adv-x="774" d="M4 1556q-4 14 -4 25q0 30 29 37q21 7 41 0.5t30 -33.5q5 -15 38.5 -96.5t45.5 -126.5q26 -91 103 -422q16 -68 45 -186.5t52.5 -217.5t43.5 -186q16 -73 40 -210t28 -160q4 -28 26 -48q0 185 2 277q0 23 4 71.5t4 73.5q0 28 -4 83t-4 83q-2 121 -2 361q-1 53 -1 123 q0 140 3 348q0 134 8 243q1 6 6.5 13.5t14 16t12.5 13.5q3 -4 11 -13t12 -16t4 -12q0 -77 -4 -230t-4 -230q-2 -118 -2 -236.5t2 -236.5q0 -57 4.5 -163.5t5.5 -148.5v-299v-399q0 -59 -47 -64h-2q-23 0 -43 20q-22 21 -25 48q-26 241 -41 336q-34 192 -78 389 q-4 23 -17.5 66.5t-18.5 64.5q-6 27 -16.5 81t-16.5 79q-5 22 -35.5 171t-50.5 228q-13 57 -80 289q-5 16 -17.5 42t-15.5 34h-14v-183q1 -41 2 -121t2 -120q0 -20 2 -61.5t2 -63.5q0 -309 2 -465q1 -61 7.5 -175.5t8.5 -160.5q10 -338 13 -401v-6q0 -43 -43 -43 q-9 0 -22.5 11t-12.5 17q9 44 11 96v34q0 32 -2 60q-3 40 -6.5 96t-4.5 93q0 264 -8 500q-2 65 -2 395q-1 22 1 92q1 42 1 72v35q0 26 -6 76t-7 73l-6 234q-1 4 -1.5 16t-2.5 18z" />
<glyph unicode="O" horiz-adv-x="647" d="M0 637q0 158 14 373q6 74 39 237q28 146 53 213q26 64 93 158q15 21 71 21t80 -21q98 -88 103 -201q2 -31 13.5 -99.5t12.5 -105.5q2 -49 2 -104.5t-1 -124t-1 -106.5q0 -135 -2 -205q-6 -133 -22 -377q-17 -242 -29 -338q-5 -39 -12.5 -79t-21 -97.5t-17.5 -77.5 q-10 -44 -36 -74t-67 -37q-10 -2 -22 -2q-28 0 -62 15q-46 21 -71 61q-22 43 -31 88q-22 107 -47 258q2 2 6 2q-3 17 -12 68.5t-14 87t-7 68.5q-12 160 -12 399zM56 655q0 -24 -1 -52q0 -55 1 -125q1 -104 1 -140q73 -481 74 -485q16 -96 41 -142q21 -37 82 -53h1q9 0 25 17 q17 18 27 36q6 14 11.5 31t11 38t8.5 32q24 87 35.5 187.5t18 223.5t14.5 191q6 53 8 112q1 35 0 77v58v66.5v46.5q1 31 3 115t2 114.5t-1 114.5q-1 48 -14 139.5t-15 133.5q-7 96 -65 147q-18 12 -21 18q-11 18 -21 22q-5 2 -9 3l-11 -3q-10 -5 -26 -19q-76 -68 -103 -224 q-52 -281 -72 -540q-5 -68 -5 -140z" />
<glyph unicode="P" horiz-adv-x="501" d="M0 -276q2 90 10 280q2 61 8.5 180t8.5 178l6 192t6 191l18 435q2 50 8.5 150.5t8.5 150.5q1 15 1 29q0 32 -5 57q-3 18 -3 31q1 21 9 31q9 9 29 9q14 0 34 -4q151 -34 191 -157q42 -124 42 -245q0 -48 -7 -95q-28 -185 -220 -230q-1 0 -47 -14q0 -125 -2 -188 q-12 -265 -14 -400q-2 -79 -2 -475v-203q-2 -10 -13 -23.5t-20 -13.5q-11 0 -25.5 10t-15.5 19q-6 25 -6 105zM96 969q20 4 52 10.5t47 9.5q67 16 92 92q19 61 19 130q0 3 1 6q0 65 -11 117q-11 54 -32 128q-23 74 -125 103q-6 -88 -20.5 -287t-22.5 -309z" />
<glyph unicode="Q" horiz-adv-x="686" d="M4 317q-4 56 -4 126.5t4 154.5q7 129 29 317q49 381 63 457q23 145 105 242q19 21 64 24q8 1 17 1q35 0 64 -11q23 -8 42 -20t32.5 -24t26 -31t19.5 -31.5t15 -37t11.5 -37t11 -40.5t10.5 -39q19 -73 21 -172q1 -28 1 -54q0 -65 -4 -118q-9 -358 -16 -461 q-15 -198 -45 -395q-9 -62 -33 -175.5t-32 -164.5q-2 -15 1.5 -30.5t12 -39t10.5 -30.5q3 -9 15 -25.5t14 -24.5q3 -7 3 -15.5t-1.5 -19t-1.5 -16.5q-6 1 -19 2t-22.5 3t-14.5 6q-8 7 -14.5 17t-15.5 26.5t-15 25.5q-16 -31 -41 -72q-30 -45 -72 -45q-28 0 -61 21 q-22 15 -38.5 33t-28.5 44t-18 42.5t-15.5 51t-13.5 46.5q-18 63 -33 176q-30 259 -33 313zM62 450q0 -89 10 -167q15 -112 24 -224q10 -166 94 -366q4 -12 18 -22.5t25 -10.5q17 0 41 33q4 7 14.5 30t18.5 33q11 20 11 41q0 24 -15 49q-68 98 -80 119q-2 10 -2 14.5 t2.5 17.5t3.5 17q5 -2 18.5 -5t22.5 -6.5t13 -8.5q14 -20 36 -58.5t29 -50.5q2 1 6 2t6 2q32 156 52 269q2 13 0.5 43.5t1.5 42.5q8 45 14.5 89.5t11.5 102t7 85.5t6.5 102.5t5.5 89.5q8 122 11 191q3 53 3 128v45q-1 105 -10 191q-4 45 -6.5 65.5t-11 61t-20.5 64t-34 52 t-53 48.5q-30 21 -54 21q-26 0 -44 -26q-34 -52 -50 -114q-49 -201 -82 -383q-5 -31 -8 -65.5t-5.5 -78t-4.5 -67.5q-26 -266 -26 -387v-9z" />
<glyph unicode="R" horiz-adv-x="618" d="M0 266q0 62 3 186t3 187q0 52 -4 174q-3 95 -2 156v32q0 39 8.5 113.5t9.5 108.5q1 31 7 370q1 5 18 45q31 -13 41 -20q20 -10 31 -21q23 -18 66.5 -52.5t66.5 -51.5q11 -8 20 -17.5t16 -21.5t11.5 -21t9.5 -25t7 -23t6.5 -26t5.5 -24q12 -44 12 -85q0 -53 -20 -101 q-34 -86 -113 -174q-1 -3 -15 -12q-7 -4 -21.5 -12.5t-21.5 -12.5q5 -17 25 -81.5t29 -98.5q85 -291 114 -400q21 -76 57.5 -222t41.5 -167q10 -41 34.5 -139.5t38.5 -151.5q4 -31 7 -40q1 -8 1 -15q0 -30 -28 -33h-5q-36 0 -42 41q-21 150 -37 213q-21 83 -109 396 q-19 67 -56.5 203.5t-57.5 203.5q-36 118 -84 223l-6 -30q0 -53 -1 -161t-1 -163q0 -184 2 -276q0 -20 4 -61t4 -62q0 -27 -4 -93q-3 -51 -2 -83v-17q2 -94 18 -278q1 -14 1.5 -25.5t-7 -19t-23.5 -7.5q-47 0 -47 50v49q0 106 -6 280q-1 33 -2.5 92.5t-2.5 108t-1 92.5z M68 983q62 10 125 90.5t69 149.5q2 21 2 40q0 91 -40 149q-48 72 -134 118q-4 -91 -11 -273.5t-11 -273.5z" />
<glyph unicode="S" horiz-adv-x="620" d="M2 -37q-2 9 -2 15q0 26 29 30q18 3 26 -5.5t11 -27.5q12 -102 24 -151q22 -100 123 -158q19 -11 38 -11q42 0 85 54q75 99 86 271q6 76 6 149q0 169 -31 324q-5 31 -16.5 62t-31.5 73.5t-27 60.5q-13 32 -34.5 67t-38 56.5t-47.5 60t-44 54.5q-117 156 -146 274 q-3 23 -2 34.5t6.5 36.5t6.5 36q3 21 10 74t13.5 91t14.5 74q20 86 64 119q19 12 51 12h4q36 -1 62 -14q101 -46 108 -178q1 -12 9 -35t10 -33q4 -25 -2 -45q0 -3 -12 -5t-15 1q-4 4 -7 10.5t-6 14.5t-5 12q-5 14 -17.5 52t-23 64.5t-23.5 49.5q-24 45 -53 45q-28 0 -62 -43 q-17 -21 -28 -50t-14.5 -46.5t-8.5 -58t-6 -50.5q-8 -45 -12 -139q-1 -14 1 -29t4 -25.5t9 -26.5t9.5 -23t13.5 -25t13.5 -22t16.5 -24t15 -22q25 -36 77 -105t90 -126t64 -115q96 -202 96 -452q0 -36 -2 -74q-2 -22 -1 -69v-26v-18q0 -53 -3 -76q-19 -169 -80 -249 q-73 -91 -153 -91q-19 0 -39 5q-11 3 -22.5 10t-26.5 19t-21 16q-46 33 -70 81t-40 117q-6 24 -13.5 68.5t-9.5 54.5z" />
<glyph unicode="T" horiz-adv-x="614" d="M0 1614q1 8 19 12.5t55.5 6t65.5 1.5h33h45h63q94 0 141 4h11q19 0 30 -5q14 -7 14 -34q1 -22 -13 -30t-42 -8q-74 3 -141 6v-606q0 -57 10 -345q12 -280 12 -284q2 -102 2.5 -290.5t1.5 -248.5q1 -20 3 -74q2 -39 1 -65v-19q0 -12 -11.5 -26t-23.5 -17q-7 -2 -13 -2 q-11 0 -18 7q-12 11 -12 34q3 99 3 195q3 237 3 394q0 79 -1 138q-1 88 -10 250t-11 207q-8 172 -8 258q0 119 4 361q0 52 -14 120q-1 6 -12 11.5t-19 5.5q-37 4 -113 4q-39 1 -48 9q-7 7 -7 22v8z" />
<glyph unicode="U" horiz-adv-x="581" d="M0 303q-1 28 -1 57t1 60q2 62 6.5 138t5.5 118q1 56 1 166t1 166q0 18 3 52t3 52q1 62 3.5 189.5t3.5 193.5q0 12 -2.5 44.5t-1.5 49.5q0 1 1 13.5t2.5 17.5t7.5 11.5t17 6.5q31 0 31 -45q0 -4 -6 -538q0 -203 -2 -303q-1 -51 -5 -154q-5 -102 -5 -152v-12q0 -50 4 -141 q2 -28 5 -96.5t6 -105.5t8.5 -93.5t15 -105t22.5 -95.5q3 -12 6 -35t8.5 -41.5t16.5 -33.5q16 -16 28 -31q3 3 10.5 9t12 11.5t6.5 10.5q5 16 22.5 73t26.5 94t14 74q9 65 15.5 134.5t13.5 169t10 135.5v73h-2q1 27 9 150.5t10 189.5v29q0 32 -1 80t-1 80v28q1 36 3 75.5 t5 87.5t4 75q8 209 10 324q0 26 8 39t33 12t32 -15q5 -11 5 -31v-12t-18 -325q-20 -406 -23 -477q-3 -63 -7.5 -178t-8.5 -210t-8 -178q-1 -24 -23 -225q-17 -134 -29 -186q-14 -68 -47 -146q-17 -35 -74 -37h-5q-53 0 -74 33q-8 12 -15 25.5t-12.5 24.5t-11 28t-8.5 26 t-7 28.5t-5.5 26.5t-5 29t-4 26.5t-4 29t-3.5 27.5q-31 262 -37 409z" />
<glyph unicode="V" horiz-adv-x="679" d="M0 1591q0 11 8 35q10 2 18 2q37 0 42 -43q33 -235 38 -299q8 -85 19.5 -255t19.5 -255q8 -80 27 -228t25 -206q7 -57 15.5 -160t12.5 -139q2 -21 8.5 -60.5t8.5 -58.5q12 0 16 2q9 64 25 182t22 158q7 52 22.5 157t22.5 157q44 295 53 364l48 336q2 13 30 303v16 q3 4 4 15t6.5 17t22.5 7h5q7 0 11 -2q6 -3 9 -8.5t3 -9.5q0 -2 1 -4q0 -4 -1 -9q-1 -8 -1 -10q-10 -127 -23 -221q-12 -90 -39.5 -282.5t-40.5 -292.5q-19 -142 -100 -766q-36 -292 -45 -385q-3 -28 -19.5 -43t-40.5 -15q-20 0 -27 14.5t-9 41.5q-22 317 -43 526 q-7 65 -26 196.5t-26 198.5q-6 63 -26 381q-1 9 -2 28t-2 28q-8 78 -24.5 233t-24.5 233q-2 21 -11 61q-12 55 -12 60z" />
<glyph unicode="W" horiz-adv-x="862" d="M0 1615q0 2 3 6.5t9 10.5q7 6 13 6q11 0 16 -22q20 -82 22 -123q4 -66 8.5 -199t8.5 -200q9 -201 24 -392q24 -315 31 -391q3 -35 35 -370q0 -1 16 -37q6 22 23 73t24 78q7 30 19.5 89.5t19.5 86.5q9 23 25 29q6 2 17.5 -2t17.5 -10q19 -22 26 -53q13 -48 37.5 -145.5 t38.5 -145.5q4 -16 21 -23q13 94 16 133q24 215 31 262q8 52 34 211t37 246q28 196 60 479q4 37 7 80t6 94t5 80q1 10 4 52t7 65q0 4 5.5 10t11.5 10t7 3q35 -20 35 -35q1 -29 1 -56q0 -53 -5 -94q-7 -70 -17 -149t-23 -175t-20 -149q-9 -78 -29.5 -220.5t-27.5 -195.5 q-21 -145 -41 -331q-38 -320 -47 -402q-7 -57 -7 -116q0 -20 1 -39q0 -29 -10 -42q-9 -12 -33 -12h-4q-16 1 -24 8.5t-10 16t-3 27.5q-2 21 -7.5 44.5t-14.5 54t-13 44.5q-11 47 -33.5 142.5t-34.5 142.5q0 2 -16 10q-4 -18 -16.5 -57t-16.5 -60q-51 -210 -73 -334 q-7 -35 -39 -26q-10 1 -20.5 13.5t-10.5 21.5q-15 212 -27 423q-16 230 -26 347q-2 23 -17 186.5t-20 249.5q-4 63 -6.5 178t-5.5 164q-3 74 -23 418q0 2 -1 5.5t-1 5.5z" />
<glyph unicode="X" horiz-adv-x="788" d="M52 -62q35 194 52 291q9 52 20 150t17 137q6 36 20 104.5t19 96.5q40 213 45 260q0 15 0.5 21t-3 21.5t-5 21t-6 21t-6.5 21.5q-8 24 -68 213t-90 287q-3 11 1 28.5t11 20.5q13 7 23 7q23 0 33 -35q13 -46 37 -130t34 -118q14 -47 37.5 -135t30.5 -113q12 0 18 -2 q18 89 45 199q46 164 93 313q2 6 14 12q9 4 16 4h4q8 -3 16 -14t7 -18q-1 -9 -35 -140q-11 -40 -31.5 -119.5t-31.5 -119.5q-26 -97 -54 -176q-12 -31 -12 -63q0 -22 6 -44q17 -56 45 -169.5t45 -170.5q8 -28 31 -85t31 -87q21 -74 58.5 -216t55.5 -206q3 -12 93 -328 q2 -7 2 -16q0 -16 -8 -36q-12 -30 -29 -36h-2q-5 0 -9 4q-6 5 -10.5 16t-8.5 22.5t-9 29t-7.5 28t-6.5 27.5t-5 21q-17 69 -47.5 204t-46.5 199q-7 27 -23.5 77t-21.5 69q-7 24 -18 66t-21 76.5t-20 64.5q-20 64 -60.5 181.5t-52.5 153.5q-2 -4 -7.5 -11.5t-6.5 -10.5 q-10 -64 -30 -194.5t-30 -194.5q-47 -300 -59 -383q-22 -150 -47 -367q-1 -6 -4 -18.5t-4 -18.5q-5 -23 -18 -34q-8 -7 -19 -7q-6 0 -12 2q-9 4 -19 24q-8 17 -8 28q0 5 52 294z" />
<glyph unicode="Y" horiz-adv-x="618" d="M0 1587q-1 3 -1 6q0 9 5 20q5 15 14 21q8 5 16 5q19 0 32 -33q23 -61 65.5 -177t50.5 -139q33 -88 72 -203q1 4 5 14t5 15q18 56 52 170t51 170q30 100 47 137q4 12 15.5 22t27.5 7q15 -1 15 -20q0 -11 -5 -27q-88 -302 -135 -442q-34 -103 -34 -244q0 -44 3 -92 q5 -54 7 -156t3 -125q9 -208 21 -420q2 -49 7 -148.5t7 -148.5q1 -11 1.5 -39t1.5 -48t5 -38q6 -33 -6.5 -52.5t-48.5 -31.5q-18 61 -18 76q-1 41 -4 221t-7 277q-2 58 -11.5 164.5t-12.5 150.5q-19 247 -19 316q0 141 -59 331q-18 59 -39.5 121t-54.5 149t-45 120 q-1 3 -14 29.5t-15 41.5z" />
<glyph unicode="Z" horiz-adv-x="512" d="M0 -338q9 74 23.5 220.5t23.5 219.5q24 197 59 396q8 47 34.5 189t37.5 220q12 76 30.5 217t22.5 168q10 60 31 150q1 4 9.5 39t9.5 55q0 6 -11 15.5t-20 9.5q-28 3 -60 5t-71 4t-60 3q-23 0 -34 8q-2 1 -6.5 4.5t-7 5.5t-5.5 6t-4.5 9t-1.5 12q0 5 1.5 8.5t4.5 5.5 t5.5 3.5t7.5 2t7 0.5h8h5q41 -2 124 -7t124 -7q42 -2 56.5 -17t8.5 -55q-9 -53 -28.5 -159.5t-28.5 -159.5q-19 -112 -56 -321.5t-44 -247.5q-6 -37 -29.5 -168.5t-32.5 -202.5q-13 -101 -45 -418q-21 -170 -25 -215h189q86 0 104 -2q7 -1 17 -13.5t12 -21.5q0 -7 -10.5 -20 t-16.5 -13q-157 0 -313 9q-46 3 -46 51q0 6 1 12z" />
<glyph unicode="a" horiz-adv-x="720" d="M0 -227q8 283 18 420q5 61 19.5 176.5t17.5 138.5q23 218 45 407q9 71 29.5 202t26.5 173q2 20 6 72t8 80q8 72 31 151q2 7 8.5 13.5t19.5 16t19 15.5q5 -10 16 -28t17.5 -31.5t9.5 -26.5q34 -197 55 -346q2 -21 16 -149.5t25 -196.5q11 -72 37.5 -203.5t34.5 -175.5 q23 -129 71 -426q4 -30 37 -291q1 -5 17 -112q0 -28 -2 -31q-8 -8 -45 -31q-1 3 -12.5 18t-12.5 23q-4 34 -8 101.5t-8 101.5q-14 143 -47 369q-1 10 -12.5 22t-22.5 15q-104 27 -194 27q-72 0 -136 -17q-12 -125 -12 -133q-10 -259 -11 -312q-1 -25 -1 -77t-1 -78 q-3 -50 -40 -50q-9 0 -19 3v170zM84 324q46 -2 166.5 -8t187.5 -9q-50 192 -99.5 572t-92.5 559q-15 0 -21 -2q-100 -793 -141 -1112z" />
<glyph unicode="b" horiz-adv-x="567" d="M0 1604q0 8 10 20t17 12q11 1 21 1q56 1 106 -31q60 -38 90 -103q6 -13 35.5 -66.5t37.5 -84.5q18 -64 27 -102q8 -40 18 -96q9 -51 10 -98q0 -6 -1 -10q-1 -52 -11 -102q-16 -83 -60.5 -140t-123.5 -120q4 -3 39 -32.5t55 -39.5q24 -11 41.5 -26t30.5 -39.5t19 -37.5 t16.5 -48t13.5 -43q29 -82 29 -142v-35q0 -99 -14 -190q-19 -113 -79 -210t-157 -199q-26 -28 -107 -50q-8 -2 -15 -2q-14 0 -23 9q-13 14 -11 43q10 286 11 335q0 44 -3 152q-2 81 -2 134v32q0 49 5 141t6 129q1 19 -2.5 54.5t-3.5 50.5q0 46 -3 194q-3 126 -3 179 q1 9 1 15q0 46 3 195q2 16 0.5 59.5t-2 58.5t-4 58t-5 58.5t-6 58.5t-6.5 58zM80 -315q32 7 33 8q13 13 42.5 40.5t46 44t36.5 43.5t32 54q8 19 26.5 54t31.5 64t18 56q15 68 15 138q0 116 -42 239q-32 89 -94 143t-145 58v-942zM80 723q8 -4 14 -6q9 6 28 16t23 12 q167 89 167 287q0 11 -1 23q-2 33 -8.5 69t-17 81t-15.5 69q-28 161 -145 266q-5 5 -12.5 10t-18 10t-14.5 7v-844z" />
<glyph unicode="c" horiz-adv-x="577" d="M0 422v28q0 28 1 60q2 46 6 103t5 89v29v81q0 23 -1 42q0 50 3 68q2 21 5.5 76t6 83.5t7 73t10 82.5t12.5 74q6 33 18 71.5t22 64t28.5 71t26.5 65.5q12 33 56 47q26 8 56 7q20 0 41 -3q63 -11 88 -92q22 -66 29 -172q2 -22 -9 -36t-40 -5q-8 56 -21 127q-8 41 -22 57 q-48 48 -67 48h-3q-20 -3 -41 -21.5t-29 -38.5q-44 -110 -65 -219q-30 -170 -45 -342q-3 -21 -3 -80q1 -22 1 -50q1 -61 0 -95v-35q0 -38 -4 -112.5t-4 -112.5q0 -34 10 -219l24 -318q14 -142 84 -219q28 -28 58 -27q8 0 14 1q36 8 53 42q54 113 76 299q3 23 13 32.5t32 8.5 t31 -14q6 -8 6 -20q0 -6 -2 -13q-7 -25 -24 -103t-33 -129.5t-41 -97.5t-66 -70q-30 -18 -59 -18q-11 0 -21 2q-82 22 -129 117q-15 32 -26.5 69.5t-18 64t-12.5 73.5t-7.5 66t-5 74.5t-4.5 68.5q-1 23 -10 131.5t-10 165.5z" />
<glyph unicode="d" horiz-adv-x="622" d="M-1 -318q1 10 3 28q2 22 2 28q12 262 14 393q7 280 7 483q1 103 1 309.5t1 309.5q1 37 6 110.5t6 110.5q1 17 0 36.5t-3 43t-3 35.5v4q-1 45 19 59q10 7 25 7q17 0 40 -9q220 -81 286 -268q24 -72 37 -116q12 -42 22 -110q5 -39 6 -75q0 -26 -3 -51q0 -12 5 -94 q4 -59 4 -99q0 -16 -1 -29q-7 -132 -33 -356q-25 -215 -55 -354q-6 -29 -30.5 -86.5t-30.5 -87.5q-17 -81 -74 -144q-74 -80 -150 -153q-15 -15 -28 -17h-4q-10 0 -18 6q-10 8 -27 27q-11 14 -17 30q-6 18 -7 29zM78 -311q4 0 7 2.5t5.5 6.5t3.5 5q151 100 221 334 q12 39 22 86.5t15.5 82.5t14.5 91t14 86q15 91 18 186q2 52 3 180.5t4 198.5q2 25 2 50q0 150 -56 325q-53 171 -250 231q-4 -312 -12 -933t-12 -932z" />
<glyph unicode="e" horiz-adv-x="481" d="M0 -308q0 6 2 29q2 46 4 138.5t4 138.5q1 30 4.5 127.5t3.5 150.5q1 37 1 117q-1 40 -1 91v57q0 106 2 151q1 68 7.5 203t7.5 203v78q-1 66 -1 158q-2 152 -1 200q0 8 -2 23t-2 25t4 15q11 14 30 25t37 12q42 2 118.5 2.5t100.5 1.5q24 0 37.5 -6.5t14.5 -27.5 q0 -45 -49 -45h-228v-555q17 2 49.5 4.5t59 5.5t49.5 8q40 8 47 -25q1 -5 1 -9q0 -37 -38 -40q-47 -2 -137 -6q-20 0 -28.5 -8.5t-8.5 -28.5q-1 -66 -4 -195.5t-4 -195.5q-2 -102 -5 -307t-5 -307v-183q0 -20 7 -28t32 -8h7q47 0 138 -23q6 -2 11.5 -9t12 -18.5t9.5 -15.5 q-5 -3 -13 -9.5t-15 -11t-13 -4.5q-8 0 -115 11q-6 1 -17.5 3t-17.5 3q-19 2 -27.5 2.5t-21 3.5t-17 3t-12 6t-9 6.5t-5 10.5t-3.5 13q-1 2 -1 18v13.5v8.5z" />
<glyph unicode="f" horiz-adv-x="477" d="M0 -369q2 31 10 136t10 161v24q0 32 -2 80q-2 67 -2 93q0 40 2 119t2 118q0 33 -2 95t-2 112.5t4 94.5q8 66 8 172v36q-1 44 -1 82q0 76 2 127q24 390 24 394q1 14 0 29.5t-3 35t-3 29.5v8q0 37 43 43q12 2 43 8.5t49 7.5q35 2 63 2q42 0 70 -4q11 0 24 -13.5t15 -25.5 q1 -3 1 -6q0 -14 -11 -25q-14 -12 -33 -12q-14 -1 -38.5 1.5t-34.5 2.5h-125q-17 -355 -27 -591q22 -5 58 -11.5t42 -7.5q41 -7 49 -16t5 -23q-4 -32 -37 -32q-12 0 -27 4q-11 4 -23.5 5.5t-31 3.5t-27.5 3q0 -5 -2 -15.5t-2 -15.5q-8 -241 -14 -360q-1 -17 -4.5 -74.5 t-3.5 -87.5q1 -41 6 -122t6 -122v-26q0 -82 -4 -330q0 -84 -4 -109q-3 -11 -15.5 -23.5t-23.5 -13.5q-6 -2 -11 -2q-11 0 -16 8q-6 10 -6 25v8z" />
<glyph unicode="g" d="M0 329v41v45q1 47 2 75t4 86t4 77q7 217 25 379q21 178 59 361q4 21 12.5 47.5t13.5 39.5t19.5 48.5t16.5 40.5q19 49 96 65q23 5 43 5q45 0 70 -27q27 -5 76 -58q40 -42 40 -66q0 -5 -2 -9q-3 -9 -12 -9q-16 -8 -31.5 0.5t-31 24t-23.5 18.5q-7 3 -20 13.5t-17 13.5 q-36 24 -66 24q-13 0 -24 -4q-38 -15 -53 -77q-44 -164 -80 -353q-17 -87 -29 -241q-20 -209 -24 -322q-1 -13 -1 -31q0 -35 3 -88t3 -88q0 -17 -1 -30q-1 -21 -1 -42q0 -55 5 -118q8 -87 15.5 -137t25.5 -156q12 -66 55 -166q8 -16 25.5 -30.5t31.5 -14.5q20 0 37 14.5 t21 38.5q10 46 30.5 129.5t36.5 153t27 131.5q6 37 11 83t7 77.5t5.5 90t5.5 85.5q-101 4 -125 8q-17 3 -37.5 13.5t-20.5 17.5q4 52 49 52q6 0 13 -1q17 -2 70 -5t81 -9q12 -3 26.5 -20t14.5 -29q-13 -191 -35 -353q-20 -147 -71 -395q-11 -52 -45 -104q-33 -53 -95 -53h-7 q-66 3 -113 63q-25 34 -39 90q-6 27 -15 88.5t-18 93.5q-11 37 -18 83.5t-10 75.5t-6.5 88t-4.5 79q-3 38 -4 77z" />
<glyph unicode="h" horiz-adv-x="589" d="M0 -365q0 45 3 135.5t3 135.5q-1 49 -3 182t-2 181.5t1 181.5q2 119 16 347.5t15 254.5v35q-1 30 -1 71q-2 68 -1 90q-2 104 -2 346q0 9 8 20t16 13q7 1 18.5 -5.5t16.5 -14.5q8 -12 8 -47q-5 -260 -8 -322q-8 -309 -14 -469q-1 -35 -4 -102t-4 -99h262v119q0 252 -2 377 q0 101 -4 301q-1 28 -5 103.5t-4 117.5q0 14 1 22.5t9.5 18t24.5 10.5h3q20 0 28 -11q8 -12 8 -34q0 -35 -1 -105.5t-1 -105.5q0 -47 1 -140t1 -140q-1 -32 -5 -158q-3 -101 -3 -164v-30q3 -125 13.5 -353.5t13.5 -308.5q12 -250 20 -375q0 -6 4 -23q3 -10 3 -17q0 -4 -1 -7 q-7 -19 -18.5 -35.5t-22.5 -17.5q-18 -3 -28.5 11t-10.5 38q2 118 2 207t-2 147q-2 60 -6 127.5t-9.5 149.5t-8.5 127v22q6 33 -10.5 46.5t-47.5 11.5q-34 -1 -104 -5.5t-109 -5.5v-112q10 -292 11 -352v-46.5v-66v-66v-47.5q0 -27 4 -79t4 -78q0 -29 -17 -43q-5 -5 -19 -7 q-4 0 -7 -1q-8 0 -13 3q-20 13 -20 41z" />
<glyph unicode="i" horiz-adv-x="264" d="M6 55q0 77 -1 230t-1 229q0 221 2 332q2 52 9 179t8 196v13q0 75 -9 349q0 55 41 55q8 0 14 -2.5t9.5 -5.5t5.5 -9.5t2.5 -10t1 -12t0.5 -11.5q2 -24 6 -71.5t6 -71.5h-2q-8 -159 -20 -483q-2 -78 -2.5 -220.5t-1.5 -187.5q-1 -60 -5.5 -182t-5.5 -183q0 -30 4 -85.5 t5 -75.5q4 -273 4 -365v-29q0 -12 -13 -27.5t-22 -15.5q-20 0 -31 14q-10 12 -10 34z" />
<glyph unicode="j" d="M0 186q0 12 11.5 30t21.5 22q21 7 29 -5t10 -36q10 -182 14 -217q11 -126 37 -271q6 -35 20 -39t43 19q37 32 37 86v10q0 34 5 91q7 65 8 89q3 81 5 172t4 202.5t3 172.5q4 286 4 432q1 86 2 258t2 258q0 2 -1 6.5t-1 6.5q-1 29 -1.5 40t-5.5 25t-7.5 17t-17.5 7t-24.5 4 t-39.5 1q-24 0 -46 10.5t-18 32.5q1 10 7.5 16.5t19.5 8.5t22 2.5t27 0.5h10h180q46 0 70 -12q3 -2 12 -4.5t12 -5t8 -11.5q2 -4 2 -10t-3 -14q-2 -14 -10.5 -21t-15.5 -8t-21.5 0.5t-18.5 1.5q-31 -2 -52 -2t-32 2q1 -23 2 -69t2 -68v-43q0 -10 2 -16q0 -135 2 -209 q0 -21 -4.5 -62.5t-5.5 -58.5q-2 -33 -2 -98q0 -1 -1 -98v-53q0 -43 1 -44q0 -30 3 -93t3 -95q-1 -63 -4 -190t-4 -191q-4 -220 -8 -332q-4 -93 -21 -137q-38 -88 -120 -105q-9 -2 -18 -2q-26 0 -48 16q-28 21 -37 62q-20 105 -28 193q-22 228 -25 325z" />
<glyph unicode="k" horiz-adv-x="657" d="M0 -373q0 48 3 144.5t3 144.5q1 86 1 257.5t1 256.5q0 245 8 438q3 58 12.5 176.5t12.5 178.5q0 1 6 338q0 6 -5.5 18t-4.5 21.5t14 15.5q8 23 31 20q28 -3 34 -87q3 -40 3 -72q0 -34 -4 -56q-4 -90 -17.5 -255t-17.5 -234q-2 -26 -2 -154q12 -4 16 -4q10 20 52.5 108 t64.5 136q82 184 121 278q21 50 61 153t60 153q12 31 23 35q3 1 6 1q7 0 16 -4q22 -10 22 -34q0 -13 -6 -29q-15 -35 -52 -134.5t-61 -152.5q-42 -96 -123 -270.5t-100 -214.5q-31 -64 -43 -99q-4 -11 4 -36q51 -111 88 -195q28 -61 41 -98q19 -50 70 -201q82 -262 121 -393 q7 -24 12 -64.5t2 -60.5q0 -15 -10 -31t-27 -20q-15 -3 -25 10t-14 29q-16 56 -41 180.5t-37 171.5q-6 21 -21.5 66t-21.5 69q-51 199 -126 322q-11 19 -20.5 43t-19.5 54.5t-16 45.5q-8 0 -12 -2q-8 -149 -10 -221q-2 -57 -2 -174q2 -90 5 -270t5 -269q0 -35 -8 -45 q-21 -21 -40 -21h-5q-8 2 -17.5 14.5t-9.5 22.5z" />
<glyph unicode="l" horiz-adv-x="415" d="M0 -352q4 98 4 149q8 473 14 711q1 55 6 190.5t5 208.5q0 39 -11 443q-4 162 -4 216v17q0 49 33 55h4q11 0 17 -9q8 -11 9 -20.5t1 -23.5q4 -189 8 -571l2 -224v-98q0 -127 -2 -127q-1 -64 -7.5 -207.5t-6.5 -220.5q0 -76 4.5 -216.5t5.5 -196.5q6 -41 4 -52q17 0 49.5 3 t57.5 5t49.5 -0.5t36.5 -14.5q9 -9 9 -24q0 -5 -1 -10q-5 -23 -57 -33q-42 -8 -86 -8h-22q-56 2 -89 11q-33 7 -33 47z" />
<glyph unicode="m" horiz-adv-x="761" d="M0 1579q2 16 9.5 32.5t17.5 20.5q16 6 28 6q25 0 33 -26q19 -56 56.5 -159t52.5 -146q26 -80 43 -146q4 -13 26 -108q58 193 142 467q1 5 9.5 33.5t14.5 43.5q5 11 17 23q11 12 17 12h1q41 -14 49 -39q14 -41 14 -92v-31q0 -36 -1 -89.5t-1 -89.5v-31q5 -192 19 -457 q12 -268 22 -402q2 -36 13.5 -156t13.5 -186q4 -83 4 -378q0 -30 2 -35q4 -10 4 -19q0 -11 -6 -19q-10 -16 -29 -18h-5q-17 0 -27 12q-12 14 -11 40q1 16 4.5 50.5t5.5 61t1 51.5q-1 37 -17 390q-1 21 -4 60t-4 60q-3 73 -3 113q0 24 1 37q0 41 0.5 49t-3.5 49t-5 49 q-2 29 -8.5 85t-8.5 83q-8 91 -20 287q-4 93 -8 287q0 19 4 65q-3 0 -9 1t-8 1q-56 -169 -71 -229q-9 -36 -23.5 -108t-23.5 -107q-11 -54 -58 -57q-25 -3 -35.5 11t-15.5 42q-15 83 -43 198q-3 18 -16.5 49.5t-16.5 41.5q-8 28 -23.5 85t-23.5 85q-3 15 -24 24v-184 q4 -212 4 -318v-118v-165.5v-165.5v-118q0 -195 6 -391q2 -51 10 -152.5t10 -152.5q0 -12 -13.5 -28t-25.5 -19q-19 -6 -28.5 5.5t-9.5 33.5q0 86 -3 244.5t-4 195.5q-6 294 -6 297q0 63 2 186.5t2 184.5q-1 82 -5 246.5t-5 246.5v27q0 31 1 76.5t1 76.5v27q0 13 -4 43 q-4 24 -4 39v6z" />
<glyph unicode="n" horiz-adv-x="774" d="M4 1556q-4 14 -4 25q0 30 29 37q21 7 41 0.5t30 -33.5q5 -15 38.5 -96.5t45.5 -126.5q26 -91 103 -422q16 -68 45 -186.5t52.5 -217.5t43.5 -186q16 -73 40 -210t28 -160q4 -28 26 -48q0 185 2 277q0 23 4 71.5t4 73.5q0 28 -4 83t-4 83q-2 121 -2 361q-1 53 -1 123 q0 140 3 348q0 134 8 243q1 6 6.5 13.5t14 16t12.5 13.5q3 -4 11 -13t12 -16t4 -12q0 -77 -4 -230t-4 -230q-2 -118 -2 -236.5t2 -236.5q0 -57 4.5 -163.5t5.5 -148.5v-299v-399q0 -59 -47 -64h-2q-23 0 -43 20q-22 21 -25 48q-26 241 -41 336q-34 192 -78 389 q-4 23 -17.5 66.5t-18.5 64.5q-6 27 -16.5 81t-16.5 79q-5 22 -35.5 171t-50.5 228q-13 57 -80 289q-5 16 -17.5 42t-15.5 34h-14v-183q1 -41 2 -121t2 -120q0 -20 2 -61.5t2 -63.5q0 -309 2 -465q1 -61 7.5 -175.5t8.5 -160.5q10 -338 13 -401v-6q0 -43 -43 -43 q-9 0 -22.5 11t-12.5 17q9 44 11 96v34q0 32 -2 60q-3 40 -6.5 96t-4.5 93q0 264 -8 500q-2 65 -2 395q-1 22 1 92q1 42 1 72v35q0 26 -6 76t-7 73l-6 234q-1 4 -1.5 16t-2.5 18z" />
<glyph unicode="o" horiz-adv-x="647" d="M0 637q0 158 14 373q6 74 39 237q28 146 53 213q26 64 93 158q15 21 71 21t80 -21q98 -88 103 -201q2 -31 13.5 -99.5t12.5 -105.5q2 -49 2 -104.5t-1 -124t-1 -106.5q0 -135 -2 -205q-6 -133 -22 -377q-17 -242 -29 -338q-5 -39 -12.5 -79t-21 -97.5t-17.5 -77.5 q-10 -44 -36 -74t-67 -37q-10 -2 -22 -2q-28 0 -62 15q-46 21 -71 61q-22 43 -31 88q-22 107 -47 258q2 2 6 2q-3 17 -12 68.5t-14 87t-7 68.5q-12 160 -12 399zM56 655q0 -24 -1 -52q0 -55 1 -125q1 -104 1 -140q73 -481 74 -485q16 -96 41 -142q21 -37 82 -53h1q9 0 25 17 q17 18 27 36q6 14 11.5 31t11 38t8.5 32q24 87 35.5 187.5t18 223.5t14.5 191q6 53 8 112q1 35 0 77v58v66.5v46.5q1 31 3 115t2 114.5t-1 114.5q-1 48 -14 139.5t-15 133.5q-7 96 -65 147q-18 12 -21 18q-11 18 -21 22q-5 2 -9 3l-11 -3q-10 -5 -26 -19q-76 -68 -103 -224 q-52 -281 -72 -540q-5 -68 -5 -140z" />
<glyph unicode="p" horiz-adv-x="501" d="M0 -276q2 90 10 280q2 61 8.5 180t8.5 178l6 192t6 191l18 435q2 50 8.5 150.5t8.5 150.5q1 15 1 29q0 32 -5 57q-3 18 -3 31q0 22 9 31q8 9 29 9q14 0 34 -4q151 -34 191 -157q42 -124 42 -245q0 -48 -7 -95q-28 -185 -220 -230q-1 0 -47 -14q0 -125 -2 -188 q-12 -265 -14 -400q-2 -79 -2 -475v-203q-2 -10 -13 -23.5t-20 -13.5q-11 0 -25.5 10t-15.5 19q-6 25 -6 105zM96 969q20 4 52 10.5t47 9.5q67 16 92 92q19 61 19 130q1 3 1 6q0 65 -11 117q-11 55 -32 128q-23 74 -125 103q-6 -88 -20.5 -287t-22.5 -309z" />
<glyph unicode="q" horiz-adv-x="686" d="M4 317q-4 56 -4 126.5t4 154.5q7 129 29 317q49 381 63 457q23 145 105 242q19 21 64 24q8 1 17 1q35 0 64 -11q23 -8 42 -20t32.5 -24t26 -31t19.5 -31.5t15 -37t11.5 -37t11 -40.5t10.5 -39q19 -73 21 -172q1 -28 1 -54q0 -65 -4 -118q-9 -358 -16 -461 q-15 -198 -45 -395q-9 -62 -33 -175.5t-32 -164.5q-2 -15 1.5 -30.5t12 -39t10.5 -30.5q3 -9 15 -25.5t14 -24.5q3 -7 3 -15.5t-1.5 -19t-1.5 -16.5q-6 1 -19 2t-22.5 3t-14.5 6q-8 7 -14.5 17t-15.5 26.5t-15 25.5q-16 -31 -41 -72q-30 -45 -72 -45q-28 0 -61 21 q-22 15 -38.5 33t-28.5 44t-18 42.5t-15.5 51t-13.5 46.5q-18 63 -33 176q-30 259 -33 313zM62 450q0 -89 10 -167q15 -112 24 -224q10 -166 94 -366q4 -12 18 -22.5t25 -10.5q17 0 41 33q4 7 14.5 30t18.5 33q11 20 11 41q0 24 -15 49q-68 98 -80 119q-2 10 -2 14.5 t2.5 17.5t3.5 17q5 -2 18.5 -5t22.5 -6.5t13 -8.5q14 -20 36 -58.5t29 -50.5q2 1 6 2t6 2q32 156 52 269q2 13 0.5 43.5t1.5 42.5q8 45 14.5 89.5t11.5 102t7 85.5t6.5 102.5t5.5 89.5q8 122 11 191q3 53 3 128v45q-1 105 -10 191q-4 45 -6.5 65.5t-11 61t-20.5 64t-34 52 t-53 48.5q-30 21 -54 21q-26 0 -44 -26q-34 -52 -50 -114q-49 -201 -82 -383q-5 -31 -8 -65.5t-5.5 -78t-4.5 -67.5q-26 -266 -26 -387v-9z" />
<glyph unicode="r" horiz-adv-x="618" d="M0 266q0 62 3 186t3 187q0 52 -4 174q-3 95 -2 156v32q0 39 8.5 113.5t9.5 108.5q1 31 7 370q1 5 18 45q31 -13 41 -20q20 -10 31 -21q23 -18 66.5 -52.5t66.5 -51.5q11 -8 20 -17.5t16 -21.5t11.5 -21t9.5 -25t7 -23t6.5 -26t5.5 -24q12 -44 12 -85q0 -53 -20 -101 q-34 -86 -113 -174q-1 -3 -15 -12q-7 -4 -21.5 -12.5t-21.5 -12.5q5 -17 25 -81.5t29 -98.5q85 -291 114 -400q21 -76 57.5 -222t41.5 -167q10 -41 34.5 -139.5t38.5 -151.5q4 -31 7 -40q1 -8 1 -15q0 -30 -28 -33h-5q-36 0 -42 41q-21 150 -37 213q-21 83 -109 396 q-19 67 -56.5 203.5t-57.5 203.5q-36 118 -84 223l-6 -30q0 -53 -1 -161t-1 -163q0 -184 2 -276q0 -20 4 -61t4 -62q0 -27 -4 -93q-3 -51 -2 -83v-17q2 -94 18 -278q1 -14 1.5 -25.5t-7 -19t-23.5 -7.5q-47 0 -47 50v49q0 106 -6 280q-1 33 -2.5 92.5t-2.5 108t-1 92.5z M68 983q62 10 125 90.5t69 149.5q2 21 2 40q0 91 -40 149q-48 72 -134 118q-4 -91 -11 -273.5t-11 -273.5z" />
<glyph unicode="s" horiz-adv-x="620" d="M2 -37q-2 9 -2 15q0 26 29 30q18 3 26 -5.5t11 -27.5q12 -102 24 -151q22 -100 123 -158q19 -11 38 -11q42 0 85 54q75 99 86 271q6 76 6 149q0 169 -31 324q-5 31 -16.5 62t-31.5 73.5t-27 60.5q-13 32 -34.5 67t-38 56.5t-47.5 60t-44 54.5q-117 156 -146 274 q-3 23 -2 34.5t6.5 36.5t6.5 36q3 21 10 74t13.5 91t14.5 74q20 86 64 119q19 12 51 12h4q36 -1 62 -14q101 -46 108 -178q1 -12 9 -35t10 -33q4 -25 -2 -45q0 -3 -12 -5t-15 1q-4 4 -7 10.5t-6 14.5t-5 12q-5 14 -17.5 52t-23 64.5t-23.5 49.5q-24 45 -53 45q-28 0 -62 -43 q-17 -21 -28 -50t-14.5 -46.5t-8.5 -58t-6 -50.5q-8 -45 -12 -139q-1 -14 1 -29t4 -25.5t9 -26.5t9.5 -23t13.5 -25t13.5 -22t16.5 -24t15 -22q25 -36 77 -105t90 -126t64 -115q96 -202 96 -452q0 -36 -2 -74q-2 -22 -1 -69v-26v-18q0 -53 -3 -76q-19 -169 -80 -249 q-73 -91 -153 -91q-19 0 -39 5q-11 3 -22.5 10t-26.5 19t-21 16q-46 33 -70 81t-40 117q-6 24 -13.5 68.5t-9.5 54.5z" />
<glyph unicode="t" horiz-adv-x="614" d="M0 1614q1 8 19 12.5t55.5 6t65.5 1.5h33h45h63q94 0 141 4h11q19 0 30 -5q14 -7 14 -34q1 -22 -13 -30t-42 -8q-74 3 -141 6v-606q0 -57 10 -345q12 -280 12 -284q2 -102 2.5 -290.5t1.5 -248.5q1 -20 3 -74q2 -39 1 -65v-19q0 -12 -11.5 -26t-23.5 -17q-7 -2 -13 -2 q-11 0 -18 7q-12 11 -12 34q3 99 3 195q3 237 3 394q0 79 -1 138q-1 88 -10 250t-11 207q-8 172 -8 258q0 119 4 361q0 52 -14 120q-1 6 -12 11.5t-19 5.5q-37 4 -113 4q-39 1 -48 9q-7 7 -7 22v8z" />
<glyph unicode="u" horiz-adv-x="581" d="M0 303q-1 28 -1 57t1 60q2 62 6.5 138t5.5 118q1 56 1 166t1 166q0 18 3 52t3 52q1 62 3.5 189.5t3.5 193.5q0 12 -2.5 44.5t-1.5 49.5q0 1 1 13.5t2.5 17.5t7.5 11.5t17 6.5q31 0 31 -45q0 -4 -6 -538q0 -203 -2 -303q-1 -51 -5 -154q-5 -102 -5 -152v-12q0 -50 4 -141 q2 -28 5 -96.5t6 -105.5t8.5 -93.5t15 -105t22.5 -95.5q3 -12 6 -35t8.5 -41.5t16.5 -33.5q16 -16 28 -31q3 3 10.5 9t12 11.5t6.5 10.5q5 16 22.5 73t26.5 94t14 74q9 65 15.5 134.5t13.5 169t10 135.5v73h-2q1 27 9 150.5t10 189.5v29q0 32 -1 80t-1 80v28q1 36 3 75.5 t5 87.5t4 75q8 209 10 324q0 26 8 39t33 12t32 -15q5 -11 5 -31v-12t-18 -325q-20 -406 -23 -477q-3 -63 -7.5 -178t-8.5 -210t-8 -178q-1 -24 -23 -225q-17 -134 -29 -186q-14 -68 -47 -146q-17 -35 -74 -37h-5q-53 0 -74 33q-8 12 -15 25.5t-12.5 24.5t-11 28t-8.5 26 t-7 28.5t-5.5 26.5t-5 29t-4 26.5t-4 29t-3.5 27.5q-31 262 -37 409z" />
<glyph unicode="v" horiz-adv-x="679" d="M0 1591q0 11 8 35q10 2 18 2q37 0 42 -43q33 -235 38 -299q8 -85 19.5 -255t19.5 -255q8 -80 27 -228t25 -206q7 -57 15.5 -160t12.5 -139q2 -21 8.5 -60.5t8.5 -58.5q12 0 16 2q9 64 25 182t22 158q7 52 22.5 157t22.5 157q44 295 53 364l48 336q2 13 30 303v16 q3 4 4 15t6.5 17t22.5 7h5q7 0 11 -2q6 -3 9 -8.5t3 -9.5q0 -2 1 -4q0 -4 -1 -9q-1 -8 -1 -10q-10 -127 -23 -221q-12 -90 -39.5 -282.5t-40.5 -292.5q-19 -142 -100 -766q-36 -292 -45 -385q-3 -28 -19.5 -43t-40.5 -15q-20 0 -27 14.5t-9 41.5q-22 317 -43 526 q-7 65 -26 196.5t-26 198.5q-6 63 -26 381q-1 9 -2 28t-2 28q-8 78 -24.5 233t-24.5 233q-2 21 -11 61q-12 55 -12 60z" />
<glyph unicode="w" horiz-adv-x="862" d="M0 1615q0 2 3 6.5t9 10.5q7 6 13 6q11 0 16 -22q20 -82 22 -123q4 -66 8.5 -199t8.5 -200q9 -201 24 -392q24 -315 31 -391q3 -35 35 -370q0 -1 16 -37q6 22 23 73t24 78q7 30 19.5 89.5t19.5 86.5q9 23 25 29q6 2 17.5 -2t17.5 -10q19 -22 26 -53q13 -48 37.5 -145.5 t38.5 -145.5q4 -16 21 -23q13 94 16 133q24 215 31 262q8 52 34 211t37 246q28 196 60 479q4 37 7 80t6 94t5 80q1 10 4 52t7 65q0 4 5.5 10t11.5 10t7 3q35 -20 35 -35q1 -29 1 -56q0 -53 -5 -94q-7 -70 -17 -149t-23 -175t-20 -149q-9 -78 -29.5 -220.5t-27.5 -195.5 q-21 -145 -41 -331q-38 -320 -47 -402q-7 -57 -7 -116q0 -20 1 -39q0 -29 -10 -42q-9 -12 -33 -12h-4q-16 1 -24 8.5t-10 16t-3 27.5q-2 21 -7.5 44.5t-14.5 54t-13 44.5q-11 47 -33.5 142.5t-34.5 142.5q0 2 -16 10q-4 -18 -16.5 -57t-16.5 -60q-51 -210 -73 -334 q-7 -35 -39 -26q-10 1 -20.5 13.5t-10.5 21.5q-15 212 -27 423q-16 230 -26 347q-2 23 -17 186.5t-20 249.5q-4 63 -6.5 178t-5.5 164q-3 74 -23 418q0 2 -1 5.5t-1 5.5z" />
<glyph unicode="x" horiz-adv-x="788" d="M52 -62q35 194 52 291q9 52 20 150t17 137q6 36 20 104.5t19 96.5q40 213 45 260q0 15 0.5 21t-3 21.5t-5 21t-6 21t-6.5 21.5q-8 24 -68 213t-90 287q-3 11 1 28.5t11 20.5q13 7 23 7q23 0 33 -35q13 -46 37 -130t34 -118q14 -47 37.5 -135t30.5 -113q12 0 18 -2 q18 89 45 199q46 164 93 313q2 6 14 12q9 4 16 4h4q8 -3 16 -14t7 -18q-1 -9 -35 -140q-11 -40 -31.5 -119.5t-31.5 -119.5q-26 -97 -54 -176q-12 -31 -12 -63q0 -22 6 -44q17 -56 45 -169.5t45 -170.5q8 -28 31 -85t31 -87q21 -74 58.5 -216t55.5 -206q3 -12 93 -328 q2 -7 2 -16q0 -16 -8 -36q-12 -30 -29 -36h-2q-5 0 -9 4q-6 5 -10.5 16t-8.5 22.5t-9 29t-7.5 28t-6.5 27.5t-5 21q-17 69 -47.5 204t-46.5 199q-7 27 -23.5 77t-21.5 69q-7 24 -18 66t-21 76.5t-20 64.5q-20 64 -60.5 181.5t-52.5 153.5q-2 -4 -7.5 -11.5t-6.5 -10.5 q-10 -64 -30 -194.5t-30 -194.5q-47 -300 -59 -383q-22 -150 -47 -367q-1 -6 -4 -18.5t-4 -18.5q-5 -23 -18 -34q-8 -7 -19 -7q-6 0 -12 2q-9 4 -19 24q-8 17 -8 28q0 5 52 294z" />
<glyph unicode="y" horiz-adv-x="618" d="M0 1587q-1 3 -1 6q0 9 5 20q5 15 14 21q8 5 16 5q19 0 32 -33q23 -61 65.5 -177t50.5 -139q33 -88 72 -203q1 4 5 14t5 15q18 56 52 170t51 170q30 100 47 137q4 12 15.5 22t27.5 7q15 -1 15 -20q0 -11 -5 -27q-88 -302 -135 -442q-34 -103 -34 -244q0 -44 3 -92 q5 -54 7 -156t3 -125q9 -208 21 -420q2 -49 7 -148.5t7 -148.5q1 -11 1.5 -39t1.5 -48t5 -38q6 -33 -6.5 -52.5t-48.5 -31.5q-18 61 -18 76q-1 41 -4 221t-7 277q-2 58 -11.5 164.5t-12.5 150.5q-19 247 -19 316q0 141 -59 331q-18 59 -39.5 121t-54.5 149t-45 120 q-1 3 -14 29.5t-15 41.5z" />
<glyph unicode="z" horiz-adv-x="512" d="M0 -338q9 74 23.5 220.5t23.5 219.5q24 197 59 396q8 47 34.5 189t37.5 220q12 76 30.5 217t22.5 168q10 60 31 150q1 4 9.5 39t9.5 55q0 6 -11 15.5t-20 9.5q-28 3 -60 5t-71 4t-60 3q-23 0 -34 8q-2 1 -6.5 4.5t-7 5.5t-5.5 6t-4.5 9t-1.5 12q0 5 1.5 8.5t4.5 5.5 t5.5 3.5t7.5 2t7 0.5h8h5q41 -2 124 -7t124 -7q42 -2 56.5 -17t8.5 -55q-9 -53 -28.5 -159.5t-28.5 -159.5q-19 -112 -56 -321.5t-44 -247.5q-6 -37 -29.5 -168.5t-32.5 -202.5q-13 -101 -45 -418q-21 -170 -25 -215h189q86 0 104 -2q7 -1 17 -13.5t12 -21.5q0 -7 -10.5 -20 t-16.5 -13q-157 0 -313 9q-46 3 -46 51q0 6 1 12z" />
<glyph unicode="&#x2000;" horiz-adv-x="819" />
<glyph unicode="&#x2001;" horiz-adv-x="1639" />
<glyph unicode="&#x2002;" horiz-adv-x="819" />
<glyph unicode="&#x2003;" horiz-adv-x="1639" />
<glyph unicode="&#x2004;" horiz-adv-x="546" />
<glyph unicode="&#x2005;" horiz-adv-x="409" />
<glyph unicode="&#x2006;" horiz-adv-x="273" />
<glyph unicode="&#x2007;" horiz-adv-x="273" />
<glyph unicode="&#x2008;" horiz-adv-x="204" />
<glyph unicode="&#x2009;" horiz-adv-x="327" />
<glyph unicode="&#x200a;" horiz-adv-x="91" />
<glyph unicode="&#x202f;" horiz-adv-x="327" />
<glyph unicode="&#x205f;" horiz-adv-x="409" />
<glyph unicode="&#x25fc;" horiz-adv-x="1638" d="M0 0v1638h1638v-1638h-1638z" />
</font>
</defs>
</svg>
